<?xml version="1.0" encoding="UTF-8"?>
<svg xmlns="http://www.w3.org/2000/svg" viewBox="0 0 102 468" width="102" height="468">
<g fill="var(--body-line, #111)" fill-rule="evenodd" stroke="none">
<path d="M 48.00,452.00 L 49.00,451.00 L 50.00,452.00 L 49.00,453.00 Z"/>
<path d="M 30.00,441.00 L 31.00,440.00 L 32.00,441.00 L 31.00,442.00 Z"/>
<path d="M 56.00,440.00 L 57.00,439.00 L 58.00,440.00 L 57.00,441.00 Z"/>
<path d="M 59.00,439.00 L 60.00,438.00 L 61.00,439.00 L 60.00,440.00 Z"/>
<path d="M 29.00,439.00 L 30.00,438.00 L 31.00,439.00 L 30.00,441.00 L 29.00,440.00 Z"/>
<path d="M 58.00,438.00 L 59.00,437.00 L 60.00,438.00 L 59.00,439.00 Z"/>
<path d="M 57.00,437.00 L 58.00,436.00 L 59.00,437.00 L 58.00,438.00 Z"/>
<path d="M 53.00,437.00 L 55.00,436.00 L 57.00,438.00 L 56.00,440.00 Z"/>
<path d="M 25.00,430.00 L 26.00,429.00 L 30.00,437.00 L 29.00,439.00 L 25.00,432.00 Z"/>
<path d="M 23.00,425.00 L 24.00,424.00 L 26.00,429.00 L 25.00,430.00 L 23.00,427.00 Z"/>
<path d="M 22.00,423.00 L 23.00,422.00 L 24.00,423.00 L 23.00,425.00 L 22.00,424.00 Z"/>
<path d="M 20.00,418.00 L 21.00,417.00 L 23.00,422.00 L 22.00,423.00 L 20.00,420.00 Z"/>
<path d="M 50.00,408.00 L 52.00,409.00 L 55.00,431.00 L 58.00,435.00 L 57.00,437.00 L 51.00,430.00 L 48.00,421.00 L 48.00,410.00 Z"/>
<path d="M 39.00,190.00 L 47.00,206.00 L 40.00,190.00 Z"/>
<path d="M 81.00,7.00 L 62.00,12.00 L 50.00,20.00 L 40.00,34.00 L 33.00,52.00 L 31.00,62.00 L 31.00,82.00 L 32.00,83.00 L 33.00,96.00 L 29.00,106.00 L 24.00,127.00 L 20.00,179.00 L 11.00,214.00 L 10.00,228.00 L 9.00,229.00 L 9.00,241.00 L 8.00,242.00 L 10.00,279.00 L 11.00,280.00 L 12.00,298.00 L 13.00,299.00 L 15.00,323.00 L 16.00,324.00 L 16.00,339.00 L 17.00,340.00 L 16.00,355.00 L 19.00,371.00 L 17.00,397.00 L 16.00,398.00 L 16.00,413.00 L 23.00,429.00 L 24.00,434.00 L 27.00,440.00 L 31.00,444.00 L 48.00,454.00 L 64.00,459.00 L 68.00,459.00 L 70.00,457.00 L 70.00,453.00 L 68.00,449.00 L 60.00,443.00 L 60.00,440.00 L 61.00,439.00 L 68.00,440.00 L 70.00,438.00 L 71.00,428.00 L 67.00,412.00 L 67.00,399.00 L 66.00,398.00 L 66.00,389.00 L 64.00,380.00 L 61.00,374.00 L 52.00,362.00 L 49.00,355.00 L 49.00,332.00 L 50.00,331.00 L 50.00,324.00 L 51.00,323.00 L 53.00,306.00 L 58.00,285.00 L 58.00,280.00 L 63.00,259.00 L 65.00,240.00 L 66.00,239.00 L 65.00,197.00 L 68.00,191.00 L 75.00,167.00 L 75.00,163.00 L 81.00,139.00 L 83.00,121.00 L 84.00,120.00 L 84.00,112.00 L 86.00,106.00 L 93.00,115.00 L 84.00,99.00 L 81.00,85.00 L 81.00,79.00 L 80.00,81.00 L 66.00,87.00 L 54.00,96.00 L 69.00,86.00 L 79.00,82.00 L 81.00,86.00 L 81.00,92.00 L 84.00,101.00 L 81.00,131.00 L 75.00,156.00 L 75.00,160.00 L 67.00,189.00 L 58.00,207.00 L 63.00,200.00 L 64.00,201.00 L 64.00,215.00 L 65.00,216.00 L 65.00,234.00 L 64.00,235.00 L 63.00,251.00 L 50.00,314.00 L 49.00,326.00 L 48.00,327.00 L 48.00,338.00 L 47.00,339.00 L 48.00,357.00 L 61.00,377.00 L 64.00,386.00 L 65.00,407.00 L 69.00,425.00 L 69.00,437.00 L 67.00,439.00 L 64.00,439.00 L 58.00,434.00 L 55.00,424.00 L 55.00,417.00 L 53.00,408.00 L 48.00,397.00 L 49.00,402.00 L 47.00,409.00 L 47.00,422.00 L 53.00,439.00 L 68.00,452.00 L 68.00,457.00 L 67.00,458.00 L 64.00,458.00 L 62.00,456.00 L 54.00,453.00 L 40.00,442.00 L 40.00,439.00 L 35.00,428.00 L 34.00,423.00 L 30.00,415.00 L 29.00,415.00 L 40.00,444.00 L 49.00,451.00 L 47.00,452.00 L 36.00,446.00 L 33.00,442.00 L 28.00,428.00 L 20.00,412.00 L 21.00,415.00 L 20.00,418.00 L 17.00,412.00 L 18.00,393.00 L 19.00,392.00 L 19.00,383.00 L 20.00,382.00 L 20.00,364.00 L 18.00,358.00 L 18.00,330.00 L 17.00,329.00 L 17.00,320.00 L 16.00,319.00 L 15.00,302.00 L 14.00,301.00 L 13.00,285.00 L 12.00,284.00 L 12.00,274.00 L 11.00,273.00 L 10.00,234.00 L 11.00,233.00 L 12.00,217.00 L 15.00,202.00 L 21.00,182.00 L 22.00,165.00 L 23.00,164.00 L 23.00,150.00 L 24.00,149.00 L 24.00,139.00 L 25.00,138.00 L 26.00,125.00 L 33.00,98.00 L 34.00,97.00 L 35.00,99.00 L 35.00,93.00 L 33.00,86.00 L 33.00,77.00 L 32.00,76.00 L 32.00,67.00 L 33.00,66.00 L 33.00,59.00 L 38.00,42.00 L 47.00,26.00 L 55.00,18.00 L 63.00,13.00 L 86.00,7.00 Z"/>
</g>
</svg>