<svg xmlns="http://www.w3.org/2000/svg" viewBox="245.0 860.0 206.3 1060.0" role="img" aria-label="Leg">
  <style>
    .figFill  { fill: var(--body-fill, #fff); stroke: var(--body-line, #1a1a1a);
                stroke-width: 2.6; stroke-linejoin: round; }
    .figDetail{ fill: none; stroke: var(--body-line, #1a1a1a); stroke-width: 1.7;
                stroke-linecap: round; stroke-linejoin: round; opacity: .8; }
    .figDetail circle { fill: none; }
  </style>
  <g class="figBody">
    <path class="figFill" d="M 433.3 970.0 C 404.9 955.0, 291.1 885.0, 263.0 880.0 C 234.9 875.0, 263.7 918.3, 265.0 940.0 C 266.3 961.7, 268.4 983.3, 271.0 1010.0 C 273.6 1036.7, 276.8 1068.3, 280.5 1100.0 C 284.2 1131.7, 289.4 1170.0, 293.0 1200.0 C 296.6 1230.0, 299.8 1258.3, 302.0 1280.0 C 304.2 1301.7, 306.2 1311.7, 306.5 1330.0 C 306.8 1348.3, 303.9 1366.7, 303.5 1390.0 C 303.1 1413.3, 301.9 1441.7, 304.0 1470.0 C 306.1 1498.3, 311.5 1530.0, 316.0 1560.0 C 320.5 1590.0, 326.6 1623.3, 331.0 1650.0 C 335.4 1676.7, 339.8 1700.0, 342.5 1720.0 C 345.2 1740.0, 347.8 1755.0, 347.5 1770.0 C 347.2 1785.0, 344.2 1796.7, 341.0 1810.0 C 337.8 1823.3, 331.2 1838.3, 328.0 1850.0 C 324.8 1861.7, 322.7 1871.7, 322.0 1880.0 C 321.3 1888.3, 323.1 1894.8, 324.0 1900.0 C 324.9 1905.2, 325.2 1907.8, 327.5 1911.3 C 329.8 1914.8, 333.4 1918.1, 337.5 1920.8 C 341.6 1923.5, 347.0 1925.8, 352.4 1927.2 C 357.8 1928.6, 364.1 1929.4, 370.0 1929.4 C 375.9 1929.4, 382.2 1928.6, 387.6 1927.2 C 393.0 1925.8, 398.4 1923.5, 402.5 1920.8 C 406.6 1918.1, 410.2 1914.8, 412.5 1911.3 C 414.8 1907.8, 414.8 1905.2, 416.0 1900.0 C 417.2 1894.8, 419.3 1888.3, 420.0 1880.0 C 420.7 1871.7, 420.8 1861.7, 420.0 1850.0 C 419.2 1838.3, 416.6 1823.3, 415.0 1810.0 C 413.4 1796.7, 411.4 1785.0, 410.5 1770.0 C 409.6 1755.0, 409.8 1740.0, 409.5 1720.0 C 409.2 1700.0, 408.6 1676.7, 409.0 1650.0 C 409.4 1623.3, 410.8 1590.0, 412.0 1560.0 C 413.2 1530.0, 415.9 1498.3, 416.0 1470.0 C 416.1 1441.7, 413.9 1413.3, 412.5 1390.0 C 411.1 1366.7, 407.9 1348.3, 407.5 1330.0 C 407.1 1311.7, 408.8 1301.7, 410.0 1280.0 C 411.2 1258.3, 412.8 1230.0, 415.0 1200.0 C 417.2 1170.0, 420.8 1131.7, 423.5 1100.0 C 426.2 1068.3, 429.4 1031.7, 431.0 1010.0 C 432.6 988.3, 432.9 976.7, 433.3 970.0 C 433.7 963.3, 433.3 970.0, 433.3 970.0 Z"/>
  </g>
  <g class="figDetail">
    <path d="M 292.0 1040.0 C 294.2 1060.0, 300.7 1123.3, 305.0 1160.0 C 309.3 1196.7, 315.8 1243.3, 318.0 1260.0"/>
    <path d="M 404.0 1040.0 C 402.3 1060.0, 397.0 1121.7, 394.0 1160.0 C 391.0 1198.3, 387.3 1251.7, 386.0 1270.0"/>
    <path d="M 385.0 1296.0 C 380.2 1294.0, 365.8 1283.3, 356.0 1284.0 C 346.2 1284.7, 331.0 1297.3, 326.0 1300.0"/>
    <path d="M 380.0 1350.0 C 372.0 1349.3, 340.0 1346.7, 332.0 1346.0"/>
    <path d="M 362.0 1400.0 C 361.3 1420.0, 358.0 1476.7, 358.0 1520.0 C 358.0 1563.3, 361.3 1636.7, 362.0 1660.0"/>
    <path d="M 404.0 1420.0 C 404.7 1440.0, 408.7 1496.7, 408.0 1540.0 C 407.3 1583.3, 401.3 1656.7, 400.0 1680.0"/>
    <path d="M 318.0 1440.0 C 318.7 1456.7, 319.0 1505.0, 322.0 1540.0 C 325.0 1575.0, 333.7 1631.7, 336.0 1650.0"/>
    <path d="M 353.0 1746.0 C 352.0 1750.3, 348.0 1767.7, 347.0 1772.0"/>
    <path d="M 416.0 1852.0 C 408.8 1849.8, 387.3 1838.7, 373.0 1839.0 C 358.7 1839.3, 337.2 1851.5, 330.0 1854.0"/>
    <path d="M 407.0 1862.0 C 407.2 1867.7, 407.8 1890.3, 408.0 1896.0"/>
    <path d="M 388.0 1850.0 C 388.2 1858.7, 388.8 1893.3, 389.0 1902.0"/>
    <path d="M 370.0 1849.0 C 369.8 1858.0, 369.2 1894.0, 369.0 1903.0"/>
    <path d="M 351.0 1853.0 C 350.8 1860.5, 350.2 1890.5, 350.0 1898.0"/>
  </g>
</svg>
