<?xml version="1.0" encoding="UTF-8"?>
<svg xmlns="http://www.w3.org/2000/svg" viewBox="0 0 260 309" width="260" height="309">
<g fill="#111" fill-rule="evenodd" stroke="none">
<path d="M 143.00,194.00 L 152.00,195.00 L 147.00,195.00 L 146.00,194.00 Z"/>
<path d="M 187.00,175.00 L 148.00,185.00 L 141.00,188.00 L 167.00,182.00 L 188.00,175.00 Z"/>
<path d="M 62.00,173.00 L 80.00,179.00 L 119.00,189.00 L 102.00,183.00 L 95.00,182.00 L 91.00,180.00 L 64.00,173.00 Z"/>
<path d="M 153.00,142.00 L 152.00,148.00 L 148.00,158.00 L 141.00,166.00 L 135.00,169.00 L 141.00,167.00 L 147.00,161.00 L 150.00,156.00 L 153.00,145.00 Z"/>
<path d="M 110.00,84.00 L 110.00,96.00 L 109.00,97.00 L 110.00,104.00 Z"/>
<path d="M 177.00,83.00 L 178.00,98.00 L 178.00,87.00 L 177.00,86.00 Z"/>
<path d="M 151.00,83.00 L 151.00,100.00 L 152.00,101.00 L 152.00,114.00 L 153.00,117.00 L 152.00,92.00 L 151.00,91.00 Z"/>
<path d="M 76.00,81.00 L 74.00,110.00 L 75.00,109.00 L 77.00,81.00 Z"/>
<path d="M 212.00,76.00 L 216.00,101.00 L 216.00,93.00 L 213.00,77.00 Z"/>
<path d="M 48.00,76.00 L 46.00,85.00 L 45.00,100.00 L 47.00,84.00 L 48.00,83.00 Z"/>
<path d="M 28.00,68.00 L 43.00,73.00 L 68.00,76.00 L 69.00,77.00 L 76.00,77.00 L 77.00,78.00 L 130.00,80.00 L 131.00,81.00 L 132.00,158.00 L 132.00,97.00 L 131.00,96.00 L 131.00,81.00 L 132.00,80.00 L 187.00,77.00 L 188.00,76.00 L 208.00,74.00 L 229.00,69.00 L 232.00,73.00 L 235.00,84.00 L 241.00,116.00 L 241.00,121.00 L 242.00,122.00 L 242.00,127.00 L 243.00,128.00 L 245.00,148.00 L 246.00,149.00 L 248.00,181.00 L 249.00,182.00 L 249.00,232.00 L 248.00,233.00 L 248.00,239.00 L 244.00,242.00 L 228.00,246.00 L 209.00,248.00 L 208.00,249.00 L 199.00,249.00 L 198.00,250.00 L 158.00,250.00 L 157.00,249.00 L 145.00,248.00 L 136.00,245.00 L 134.00,243.00 L 132.00,215.00 L 131.00,214.00 L 130.00,193.00 L 132.00,188.00 L 132.00,180.00 L 131.00,189.00 L 128.00,193.00 L 114.00,200.00 L 100.00,209.00 L 121.00,198.00 L 126.00,194.00 L 128.00,195.00 L 123.00,243.00 L 120.00,246.00 L 107.00,250.00 L 97.00,251.00 L 96.00,252.00 L 88.00,252.00 L 87.00,253.00 L 54.00,253.00 L 53.00,252.00 L 44.00,252.00 L 43.00,251.00 L 31.00,250.00 L 12.00,245.00 L 10.00,243.00 L 10.00,229.00 L 9.00,228.00 L 10.00,170.00 L 11.00,169.00 L 12.00,149.00 L 13.00,148.00 L 13.00,140.00 L 14.00,139.00 L 17.00,110.00 L 18.00,109.00 L 21.00,87.00 L 26.00,70.00 Z"/>
<path d="M 172.00,62.00 L 171.00,63.00 L 172.00,72.00 Z"/>
<path d="M 124.00,60.00 L 123.00,61.00 L 124.00,71.00 Z"/>
<path d="M 149.00,59.00 L 150.00,74.00 L 150.00,63.00 L 149.00,62.00 Z"/>
<path d="M 105.00,59.00 L 104.00,63.00 L 104.00,72.00 L 105.00,74.00 Z"/>
<path d="M 90.00,58.00 L 89.00,61.00 L 89.00,71.00 L 90.00,73.00 Z"/>
<path d="M 190.00,57.00 L 191.00,69.00 L 191.00,58.00 Z"/>
<path d="M 65.00,56.00 L 64.00,61.00 L 64.00,69.00 L 65.00,69.00 Z"/>
<path d="M 205.00,54.00 L 205.00,66.00 L 206.00,68.00 L 206.00,58.00 L 205.00,57.00 Z"/>
<path d="M 43.00,50.00 L 42.00,65.00 L 42.00,60.00 L 43.00,59.00 Z"/>
<path d="M 218.00,49.00 L 220.00,62.00 L 221.00,60.00 L 220.00,59.00 L 219.00,49.00 Z"/>
<path d="M 32.00,44.00 L 45.00,48.00 L 69.00,51.00 L 70.00,52.00 L 100.00,54.00 L 101.00,55.00 L 123.00,55.00 L 124.00,56.00 L 125.00,55.00 L 158.00,55.00 L 159.00,54.00 L 189.00,52.00 L 190.00,51.00 L 218.00,47.00 L 226.00,44.00 L 227.00,45.00 L 229.00,67.00 L 227.00,69.00 L 219.00,70.00 L 214.00,72.00 L 196.00,74.00 L 195.00,75.00 L 187.00,75.00 L 186.00,76.00 L 165.00,77.00 L 164.00,78.00 L 111.00,79.00 L 110.00,78.00 L 77.00,77.00 L 76.00,76.00 L 68.00,76.00 L 67.00,75.00 L 48.00,73.00 L 29.00,68.00 L 28.00,67.00 L 28.00,62.00 L 29.00,61.00 L 30.00,46.00 Z"/>
<path d="M 192.00,33.00 L 183.00,49.00 L 186.00,46.00 L 192.00,34.00 Z"/>
<path d="M 68.00,33.00 L 71.00,40.00 L 77.00,48.00 L 69.00,34.00 Z"/>
<path d="M 41.00,8.00 L 38.00,17.00 L 35.00,38.00 L 29.00,44.00 L 27.00,65.00 L 22.00,77.00 L 18.00,95.00 L 14.00,128.00 L 13.00,129.00 L 13.00,136.00 L 12.00,137.00 L 12.00,144.00 L 11.00,145.00 L 11.00,154.00 L 9.00,164.00 L 9.00,177.00 L 8.00,178.00 L 8.00,236.00 L 9.00,237.00 L 9.00,245.00 L 15.00,248.00 L 17.00,276.00 L 18.00,277.00 L 18.00,284.00 L 19.00,285.00 L 19.00,291.00 L 22.00,307.00 L 23.00,308.00 L 21.00,291.00 L 20.00,290.00 L 19.00,273.00 L 18.00,272.00 L 18.00,261.00 L 17.00,260.00 L 17.00,250.00 L 16.00,249.00 L 17.00,248.00 L 40.00,253.00 L 61.00,254.00 L 62.00,255.00 L 90.00,254.00 L 91.00,253.00 L 105.00,252.00 L 116.00,249.00 L 117.00,250.00 L 115.00,256.00 L 112.00,282.00 L 111.00,283.00 L 109.00,308.00 L 111.00,300.00 L 117.00,252.00 L 118.00,249.00 L 124.00,245.00 L 127.00,214.00 L 129.00,207.00 L 130.00,208.00 L 133.00,244.00 L 134.00,246.00 L 139.00,248.00 L 143.00,269.00 L 144.00,281.00 L 145.00,282.00 L 146.00,295.00 L 149.00,308.00 L 147.00,286.00 L 145.00,279.00 L 142.00,255.00 L 140.00,249.00 L 141.00,248.00 L 154.00,251.00 L 189.00,252.00 L 190.00,251.00 L 202.00,251.00 L 203.00,250.00 L 219.00,249.00 L 240.00,244.00 L 241.00,245.00 L 241.00,256.00 L 240.00,257.00 L 240.00,266.00 L 239.00,267.00 L 239.00,276.00 L 238.00,277.00 L 235.00,308.00 L 239.00,289.00 L 243.00,244.00 L 250.00,240.00 L 250.00,219.00 L 251.00,218.00 L 250.00,175.00 L 249.00,174.00 L 249.00,164.00 L 248.00,163.00 L 246.00,138.00 L 245.00,137.00 L 239.00,96.00 L 237.00,90.00 L 237.00,85.00 L 233.00,71.00 L 230.00,66.00 L 230.00,56.00 L 229.00,55.00 L 228.00,43.00 L 223.00,40.00 L 221.00,25.00 L 217.00,9.00 L 217.00,16.00 L 220.00,25.00 L 221.00,38.00 L 222.00,39.00 L 222.00,43.00 L 220.00,45.00 L 194.00,50.00 L 168.00,52.00 L 167.00,53.00 L 152.00,53.00 L 151.00,54.00 L 93.00,53.00 L 92.00,52.00 L 82.00,52.00 L 81.00,51.00 L 58.00,49.00 L 38.00,45.00 L 35.00,43.00 L 35.00,39.00 L 36.00,38.00 L 37.00,25.00 L 41.00,12.00 Z"/>
</g>
</svg>